<?xml version="1.0" standalone="no"?>
<svg
  width="600"
  height="600"
  viewBox="0 0 600 600"
  xmlns="http://www.w3.org/2000/svg"
>
  <g transform="translate(300,300)">
    <path className="fondo1" d="M115.2,-115.5C158.9,-100.7,210.4,-73.4,235.4,-27.4C260.4,18.7,258.8,83.6,230.9,134.5C202.9,185.5,148.7,222.4,90.5,239.6C32.4,256.8,-29.6,254.3,-65.9,223C-102.1,191.6,-112.5,131.3,-139.3,81.9C-166,32.5,-209.1,-6,-212.1,-45.9C-215.2,-85.8,-178.3,-127.2,-136.3,-142.3C-94.3,-157.4,-47.1,-146.2,-5.7,-139.4C35.8,-132.6,71.6,-130.3,115.2,-115.5Z" fill="#FFB4BC" />
  </g>
</svg>
  