<?xml version="1.0" standalone="no"?>
<svg
  width="600"
  height="600"
  viewBox="0 0 600 600"
  xmlns="http://www.w3.org/2000/svg"
>
  <g transform="translate(300,300)">
    <path d="M171.5,-202.2C216.1,-166.9,242,-107.1,238,-53.3C234,0.5,200.1,48.3,168.7,92.5C137.3,136.7,108.3,177.3,71.9,185.1C35.6,193,-8.2,167.9,-51.9,149.1C-95.6,130.4,-139.1,117.9,-167.4,87.6C-195.7,57.3,-208.6,9.1,-194.4,-27.7C-180.1,-64.6,-138.6,-90.1,-101.6,-126.8C-64.7,-163.4,-32.4,-211.2,15.5,-229.7C63.4,-248.2,126.8,-237.5,171.5,-202.2Z" fill="#8ed1fc" />
  </g>
</svg>
  